<mxfile host="app.diagrams.net" modified="2024-02-14T23:25:10.791Z" agent="Mozilla/5.0 (Windows NT 10.0; Win64; x64) AppleWebKit/537.36 (KHTML, like Gecko) Chrome/121.0.0.0 Safari/537.36 Edg/121.0.0.0" etag="mLl6miLIJa0_FRB4bJyq" version="23.1.4" type="device">
  <diagram name="Page-1" id="3DQCptUQKI0O90BgZ1rI">
    <mxGraphModel dx="845" dy="455" grid="1" gridSize="10" guides="1" tooltips="1" connect="1" arrows="1" fold="1" page="1" pageScale="1" pageWidth="850" pageHeight="1100" math="0" shadow="0">
      <root>
        <mxCell id="0" />
        <mxCell id="1" parent="0" />
        <mxCell id="xHXBkP140awJae6cj-Jp-65" value="" style="edgeStyle=elbowEdgeStyle;rounded=0;orthogonalLoop=1;jettySize=auto;html=1;elbow=horizontal;startArrow=none;endArrow=none;" edge="1" parent="1" source="xHXBkP140awJae6cj-Jp-19" target="xHXBkP140awJae6cj-Jp-64">
          <mxGeometry relative="1" as="geometry" />
        </mxCell>
        <UserObject label="App" treeRoot="1" id="xHXBkP140awJae6cj-Jp-19">
          <mxCell style="whiteSpace=wrap;html=1;align=center;treeFolding=1;treeMoving=1;newEdgeStyle={&quot;edgeStyle&quot;:&quot;elbowEdgeStyle&quot;,&quot;startArrow&quot;:&quot;none&quot;,&quot;endArrow&quot;:&quot;none&quot;};" vertex="1" parent="1">
            <mxGeometry x="355" y="80" width="120" height="60" as="geometry" />
          </mxCell>
        </UserObject>
        <mxCell id="xHXBkP140awJae6cj-Jp-21" value="shared" style="whiteSpace=wrap;html=1;align=center;verticalAlign=middle;treeFolding=1;treeMoving=1;newEdgeStyle={&quot;edgeStyle&quot;:&quot;elbowEdgeStyle&quot;,&quot;startArrow&quot;:&quot;none&quot;,&quot;endArrow&quot;:&quot;none&quot;};" vertex="1" collapsed="1" parent="1">
          <mxGeometry x="450" y="180" width="100" height="60" as="geometry" />
        </mxCell>
        <mxCell id="xHXBkP140awJae6cj-Jp-55" value="" style="edgeStyle=elbowEdgeStyle;rounded=0;orthogonalLoop=1;jettySize=auto;html=1;elbow=vertical;startArrow=none;endArrow=none;" edge="1" parent="1" source="xHXBkP140awJae6cj-Jp-33" target="xHXBkP140awJae6cj-Jp-54">
          <mxGeometry relative="1" as="geometry" />
        </mxCell>
        <mxCell id="xHXBkP140awJae6cj-Jp-33" value="shiping-list" style="whiteSpace=wrap;html=1;align=center;verticalAlign=middle;treeFolding=1;treeMoving=1;newEdgeStyle={&quot;edgeStyle&quot;:&quot;elbowEdgeStyle&quot;,&quot;startArrow&quot;:&quot;none&quot;,&quot;endArrow&quot;:&quot;none&quot;};" vertex="1" parent="1">
          <mxGeometry x="640" y="180" width="100" height="60" as="geometry" />
        </mxCell>
        <mxCell id="xHXBkP140awJae6cj-Jp-37" value="header" style="whiteSpace=wrap;html=1;align=center;verticalAlign=middle;treeFolding=1;treeMoving=1;newEdgeStyle={&quot;edgeStyle&quot;:&quot;elbowEdgeStyle&quot;,&quot;startArrow&quot;:&quot;none&quot;,&quot;endArrow&quot;:&quot;none&quot;};" vertex="1" collapsed="1" parent="1">
          <mxGeometry x="110" y="180" width="100" height="60" as="geometry" />
        </mxCell>
        <mxCell id="xHXBkP140awJae6cj-Jp-43" value="Recipe Project" style="text;html=1;align=center;verticalAlign=middle;resizable=0;points=[];autosize=1;strokeColor=none;fillColor=none;" vertex="1" parent="1">
          <mxGeometry x="370" y="8" width="100" height="30" as="geometry" />
        </mxCell>
        <mxCell id="xHXBkP140awJae6cj-Jp-53" value="" style="edgeStyle=orthogonalEdgeStyle;rounded=0;orthogonalLoop=1;jettySize=auto;html=1;exitX=0.45;exitY=1.033;exitDx=0;exitDy=0;exitPerimeter=0;" edge="1" parent="1" source="xHXBkP140awJae6cj-Jp-87" target="xHXBkP140awJae6cj-Jp-52">
          <mxGeometry relative="1" as="geometry">
            <mxPoint x="450" y="350" as="sourcePoint" />
            <Array as="points">
              <mxPoint x="435" y="420" />
              <mxPoint x="435" y="420" />
            </Array>
          </mxGeometry>
        </mxCell>
        <mxCell id="xHXBkP140awJae6cj-Jp-48" value="recipe-details" style="whiteSpace=wrap;html=1;sketch=0;pointerEvents=1;" vertex="1" parent="1">
          <mxGeometry x="140" y="290" width="120" height="60" as="geometry" />
        </mxCell>
        <mxCell id="xHXBkP140awJae6cj-Jp-52" value="recipe-item" style="rounded=1;whiteSpace=wrap;html=1;sketch=0;pointerEvents=1;" vertex="1" parent="1">
          <mxGeometry x="380" y="400" width="120" height="60" as="geometry" />
        </mxCell>
        <mxCell id="xHXBkP140awJae6cj-Jp-54" value="shipping-edit" style="rounded=1;whiteSpace=wrap;html=1;" vertex="1" parent="1">
          <mxGeometry x="630" y="320" width="120" height="60" as="geometry" />
        </mxCell>
        <mxCell id="xHXBkP140awJae6cj-Jp-68" value="" style="edgeStyle=orthogonalEdgeStyle;rounded=0;orthogonalLoop=1;jettySize=auto;html=1;exitX=0.341;exitY=0.477;exitDx=0;exitDy=0;exitPerimeter=0;" edge="1" parent="1" source="xHXBkP140awJae6cj-Jp-64" target="xHXBkP140awJae6cj-Jp-37">
          <mxGeometry relative="1" as="geometry">
            <mxPoint x="425" y="160" as="sourcePoint" />
            <mxPoint x="170" y="220" as="targetPoint" />
            <Array as="points">
              <mxPoint x="160" y="160" />
            </Array>
          </mxGeometry>
        </mxCell>
        <mxCell id="xHXBkP140awJae6cj-Jp-69" value="" style="edgeStyle=orthogonalEdgeStyle;rounded=0;orthogonalLoop=1;jettySize=auto;html=1;" edge="1" parent="1" source="xHXBkP140awJae6cj-Jp-64" target="xHXBkP140awJae6cj-Jp-33">
          <mxGeometry relative="1" as="geometry">
            <Array as="points">
              <mxPoint x="690" y="160" />
            </Array>
          </mxGeometry>
        </mxCell>
        <mxCell id="xHXBkP140awJae6cj-Jp-76" value="" style="edgeStyle=orthogonalEdgeStyle;rounded=0;orthogonalLoop=1;jettySize=auto;html=1;" edge="1" parent="1" source="xHXBkP140awJae6cj-Jp-64" target="xHXBkP140awJae6cj-Jp-21">
          <mxGeometry relative="1" as="geometry" />
        </mxCell>
        <mxCell id="xHXBkP140awJae6cj-Jp-77" value="" style="edgeStyle=orthogonalEdgeStyle;rounded=0;orthogonalLoop=1;jettySize=auto;html=1;" edge="1" parent="1" source="xHXBkP140awJae6cj-Jp-64" target="xHXBkP140awJae6cj-Jp-21">
          <mxGeometry relative="1" as="geometry" />
        </mxCell>
        <mxCell id="xHXBkP140awJae6cj-Jp-78" value="" style="edgeStyle=orthogonalEdgeStyle;rounded=0;orthogonalLoop=1;jettySize=auto;html=1;" edge="1" parent="1" source="xHXBkP140awJae6cj-Jp-64" target="xHXBkP140awJae6cj-Jp-21">
          <mxGeometry relative="1" as="geometry" />
        </mxCell>
        <mxCell id="xHXBkP140awJae6cj-Jp-79" value="" style="edgeStyle=orthogonalEdgeStyle;rounded=0;orthogonalLoop=1;jettySize=auto;html=1;" edge="1" parent="1" source="xHXBkP140awJae6cj-Jp-64" target="xHXBkP140awJae6cj-Jp-21">
          <mxGeometry relative="1" as="geometry" />
        </mxCell>
        <mxCell id="xHXBkP140awJae6cj-Jp-80" value="" style="edgeStyle=orthogonalEdgeStyle;rounded=0;orthogonalLoop=1;jettySize=auto;html=1;" edge="1" parent="1" source="xHXBkP140awJae6cj-Jp-64" target="xHXBkP140awJae6cj-Jp-21">
          <mxGeometry relative="1" as="geometry" />
        </mxCell>
        <mxCell id="xHXBkP140awJae6cj-Jp-64" value="" style="shape=waypoint;sketch=0;size=6;pointerEvents=1;points=[];fillColor=default;resizable=0;rotatable=0;perimeter=centerPerimeter;snapToPoint=1;" vertex="1" parent="1">
          <mxGeometry x="410" y="150" width="20" height="20" as="geometry" />
        </mxCell>
        <mxCell id="xHXBkP140awJae6cj-Jp-84" value="" style="edgeStyle=elbowEdgeStyle;rounded=0;orthogonalLoop=1;jettySize=auto;html=1;elbow=vertical;startArrow=none;endArrow=none;" edge="1" parent="1" source="xHXBkP140awJae6cj-Jp-81" target="xHXBkP140awJae6cj-Jp-83">
          <mxGeometry relative="1" as="geometry" />
        </mxCell>
        <mxCell id="xHXBkP140awJae6cj-Jp-81" value="recipe" style="whiteSpace=wrap;html=1;align=center;verticalAlign=middle;treeFolding=1;treeMoving=1;newEdgeStyle={&quot;edgeStyle&quot;:&quot;elbowEdgeStyle&quot;,&quot;startArrow&quot;:&quot;none&quot;,&quot;endArrow&quot;:&quot;none&quot;};" vertex="1" parent="1">
          <mxGeometry x="280" y="180" width="100" height="60" as="geometry" />
        </mxCell>
        <mxCell id="xHXBkP140awJae6cj-Jp-82" value="" style="edgeStyle=orthogonalEdgeStyle;rounded=0;orthogonalLoop=1;jettySize=auto;html=1;exitX=0.795;exitY=0.417;exitDx=0;exitDy=0;exitPerimeter=0;" edge="1" target="xHXBkP140awJae6cj-Jp-81" parent="1" source="xHXBkP140awJae6cj-Jp-64">
          <mxGeometry relative="1" as="geometry">
            <mxPoint x="325" y="160" as="sourcePoint" />
          </mxGeometry>
        </mxCell>
        <mxCell id="xHXBkP140awJae6cj-Jp-85" value="" style="edgeStyle=orthogonalEdgeStyle;rounded=0;orthogonalLoop=1;jettySize=auto;html=1;entryX=0.541;entryY=-0.008;entryDx=0;entryDy=0;entryPerimeter=0;" edge="1" parent="1" source="xHXBkP140awJae6cj-Jp-83" target="xHXBkP140awJae6cj-Jp-87">
          <mxGeometry relative="1" as="geometry">
            <mxPoint x="450.03030303030323" y="290" as="targetPoint" />
          </mxGeometry>
        </mxCell>
        <mxCell id="xHXBkP140awJae6cj-Jp-86" value="" style="edgeStyle=orthogonalEdgeStyle;rounded=0;orthogonalLoop=1;jettySize=auto;html=1;" edge="1" parent="1" source="xHXBkP140awJae6cj-Jp-83" target="xHXBkP140awJae6cj-Jp-48">
          <mxGeometry relative="1" as="geometry" />
        </mxCell>
        <mxCell id="xHXBkP140awJae6cj-Jp-83" value="" style="shape=waypoint;sketch=0;size=6;pointerEvents=1;points=[];fillColor=default;resizable=0;rotatable=0;perimeter=centerPerimeter;snapToPoint=1;" vertex="1" parent="1">
          <mxGeometry x="320" y="250" width="20" height="20" as="geometry" />
        </mxCell>
        <mxCell id="xHXBkP140awJae6cj-Jp-87" value="recipe-list" style="whiteSpace=wrap;html=1;align=center;verticalAlign=middle;treeFolding=1;treeMoving=1;newEdgeStyle={&quot;edgeStyle&quot;:&quot;elbowEdgeStyle&quot;,&quot;startArrow&quot;:&quot;none&quot;,&quot;endArrow&quot;:&quot;none&quot;};" vertex="1" parent="1">
          <mxGeometry x="390" y="290" width="100" height="60" as="geometry" />
        </mxCell>
      </root>
    </mxGraphModel>
  </diagram>
</mxfile>
